<svg width="17" height="16" viewBox="0 0 17 16" fill="none" xmlns="http://www.w3.org/2000/svg">
<path d="M15.3458 12.6377L12.7601 10.1844C13.7638 8.98729 14.2498 7.46788 14.1183 5.93855C13.9868 4.40922 13.2477 2.98621 12.0531 1.96212C10.8584 0.938024 9.29895 0.390694 7.69536 0.432667C6.09177 0.474641 4.56593 1.10273 3.4316 2.18778C2.29726 3.27283 1.64065 4.73238 1.59677 6.2663C1.55289 7.80022 2.12508 9.29193 3.19568 10.4347C4.26629 11.5775 5.75393 12.2844 7.35272 12.4102C8.95151 12.536 10.5399 12.0711 11.7914 11.111L14.3561 13.5644C14.4209 13.6268 14.498 13.6764 14.5829 13.7103C14.6678 13.7441 14.7589 13.7615 14.8509 13.7615C14.943 13.7615 15.034 13.7441 15.119 13.7103C15.2039 13.6764 15.281 13.6268 15.3458 13.5644C15.4714 13.44 15.5416 13.2739 15.5416 13.101C15.5416 12.9281 15.4714 12.762 15.3458 12.6377ZM7.8815 11.111C6.9166 11.111 5.97337 10.8373 5.17108 10.3245C4.3688 9.81176 3.74349 9.08293 3.37424 8.23021C3.00499 7.37749 2.90838 6.43918 3.09662 5.53393C3.28486 4.62869 3.74951 3.79717 4.43179 3.14452C5.11408 2.49188 5.98337 2.04742 6.92972 1.86735C7.87608 1.68729 8.85701 1.77971 9.74846 2.13292C10.6399 2.48612 11.4018 3.08426 11.9379 3.85169C12.474 4.61912 12.7601 5.52137 12.7601 6.44435C12.7601 7.68203 12.2461 8.86901 11.3312 9.74418C10.4163 10.6194 9.17538 11.111 7.8815 11.111Z" fill="white"/>
</svg>
